<svg xmlns="http://www.w3.org/2000/svg" width="1440" height="900"><path d="M766,543L707,686L855,576Z" fill="#f67950" stroke="#f67950" stroke-width="1.51"/><path d="M707,686L924,719L855,576Z" fill="#f26e4a" stroke="#f26e4a" stroke-width="1.51"/><path d="M766,543L582,530L707,686Z" fill="#f88256" stroke="#f88256" stroke-width="1.51"/><path d="M707,686L858,876L924,719Z" fill="#ec623f" stroke="#ec623f" stroke-width="1.51"/><path d="M675,888L858,876L707,686Z" fill="#ea623b" stroke="#ea623b" stroke-width="1.51"/><path d="M582,530L534,685L707,686Z" fill="#f7845a" stroke="#f7845a" stroke-width="1.51"/><path d="M534,685L675,888L707,686Z" fill="#f0744a" stroke="#f0744a" stroke-width="1.51"/><path d="M855,576L874,359L766,543Z" fill="#f88053" stroke="#f88053" stroke-width="1.51"/><path d="M766,543L667,307L582,530Z" fill="#fc915c" stroke="#fc915c" stroke-width="1.51"/><path d="M1133,538L874,359L855,576Z" fill="#f5774f" stroke="#f5774f" stroke-width="1.51"/><path d="M924,719L1133,538L855,576Z" fill="#f06949" stroke="#f06949" stroke-width="1.51"/><path d="M1066,948L1104,724L924,719Z" fill="#e34b32" stroke="#e34b32" stroke-width="1.51"/><path d="M874,359L667,307L766,543Z" fill="#fc905d" stroke="#fc905d" stroke-width="1.51"/><path d="M893,1157L1066,948L858,876Z" fill="#d44328" stroke="#d44328" stroke-width="1.51"/><path d="M534,685L567,908L675,888Z" fill="#ec7045" stroke="#ec7045" stroke-width="1.51"/><path d="M1104,724L1133,538L924,719Z" fill="#ea5b3f" stroke="#ea5b3f" stroke-width="1.51"/><path d="M667,307L525,335L582,530Z" fill="#fda06a" stroke="#fda06a" stroke-width="1.51"/><path d="M371,588L379,698L534,685Z" fill="#f79165" stroke="#f79165" stroke-width="1.51"/><path d="M534,685L379,698L567,908Z" fill="#f18054" stroke="#f18054" stroke-width="1.51"/><path d="M371,588L534,685L582,530Z" fill="#f99264" stroke="#f99264" stroke-width="1.51"/><path d="M525,335L371,588L582,530Z" fill="#fc9e6a" stroke="#fc9e6a" stroke-width="1.51"/><path d="M874,359L858,198L667,307Z" fill="#fb9c69" stroke="#fb9c69" stroke-width="1.51"/><path d="M1133,538L1064,322L874,359Z" fill="#f57c52" stroke="#f57c52" stroke-width="1.51"/><path d="M858,876L1066,948L924,719Z" fill="#e24e33" stroke="#e24e33" stroke-width="1.51"/><path d="M677,1121L858,876L675,888Z" fill="#dd5830" stroke="#dd5830" stroke-width="1.51"/><path d="M1064,322L858,198L874,359Z" fill="#f89163" stroke="#f89163" stroke-width="1.51"/><path d="M667,307L511,210L525,335Z" fill="#fdb078" stroke="#fdb078" stroke-width="1.51"/><path d="M858,198L683,180L667,307Z" fill="#fda670" stroke="#fda670" stroke-width="1.51"/><path d="M567,908L677,1121L675,888Z" fill="#de6136" stroke="#de6136" stroke-width="1.51"/><path d="M508,1138L677,1121L567,908Z" fill="#d46138" stroke="#d46138" stroke-width="1.51"/><path d="M525,335L302,328L371,588Z" fill="#feab75" stroke="#feab75" stroke-width="1.51"/><path d="M683,180L511,210L667,307Z" fill="#fdaf78" stroke="#fdaf78" stroke-width="1.51"/><path d="M1133,538L1314,337L1064,322Z" fill="#ee7046" stroke="#ee7046" stroke-width="1.51"/><path d="M1104,724L1285,592L1133,538Z" fill="#e75539" stroke="#e75539" stroke-width="1.51"/><path d="M1297,716L1285,592L1104,724Z" fill="#e14830" stroke="#e14830" stroke-width="1.51"/><path d="M379,698L387,962L567,908Z" fill="#eb7b4e" stroke="#eb7b4e" stroke-width="1.51"/><path d="M192,958L387,962L379,698Z" fill="#ea8053" stroke="#ea8053" stroke-width="1.51"/><path d="M1301,944L1297,716L1104,724Z" fill="#d93523" stroke="#d93523" stroke-width="1.51"/><path d="M677,1121L893,1157L858,876Z" fill="#d14d2a" stroke="#d14d2a" stroke-width="1.51"/><path d="M1066,948L1301,944L1104,724Z" fill="#d73521" stroke="#d73521" stroke-width="1.51"/><path d="M371,588L180,681L379,698Z" fill="#f8976a" stroke="#f8976a" stroke-width="1.51"/><path d="M511,210L302,328L525,335Z" fill="#fdb981" stroke="#fdb981" stroke-width="1.51"/><path d="M387,962L508,1138L567,908Z" fill="#dd6d40" stroke="#dd6d40" stroke-width="1.51"/><path d="M677,1121L508,1138L893,1157Z" fill="#c6532e" stroke="#c6532e" stroke-width="1.51"/><path d="M893,1157L1109,1122L1066,948Z" fill="#c63822" stroke="#c63822" stroke-width="1.51"/><path d="M1294,1056L1301,944L1066,948Z" fill="#c82313" stroke="#c82313" stroke-width="1.51"/><path d="M143,550L180,681L371,588Z" fill="#faa072" stroke="#faa072" stroke-width="1.51"/><path d="M387,962L321,1112L508,1138Z" fill="#d46f44" stroke="#d46f44" stroke-width="1.51"/><path d="M1285,592L1314,337L1133,538Z" fill="#e85e39" stroke="#e85e39" stroke-width="1.51"/><path d="M1064,322L1138,134L858,198Z" fill="#f69164" stroke="#f69164" stroke-width="1.51"/><path d="M1445,390L1314,337L1285,592Z" fill="#e35f36" stroke="#e35f36" stroke-width="1.51"/><path d="M1428,579L1285,592L1297,716Z" fill="#dd482e" stroke="#dd482e" stroke-width="1.51"/><path d="M1314,337L1138,134L1064,322Z" fill="#f08255" stroke="#f08255" stroke-width="1.51"/><path d="M858,198L876,6L683,180Z" fill="#fca774" stroke="#fca774" stroke-width="1.51"/><path d="M302,328L210,363L371,588Z" fill="#feaf79" stroke="#feaf79" stroke-width="1.51"/><path d="M192,159L210,363L302,328Z" fill="#fdc48d" stroke="#fdc48d" stroke-width="1.51"/><path d="M683,180L537,-11L511,210Z" fill="#feba84" stroke="#feba84" stroke-width="1.51"/><path d="M511,210L314,190L302,328Z" fill="#fdc18a" stroke="#fdc18a" stroke-width="1.51"/><path d="M1138,134L876,6L858,198Z" fill="#f99d70" stroke="#f99d70" stroke-width="1.51"/><path d="M210,363L143,550L371,588Z" fill="#fdab76" stroke="#fdab76" stroke-width="1.51"/><path d="M362,-14L314,190L511,210Z" fill="#fdc891" stroke="#fdc891" stroke-width="1.51"/><path d="M1464,782L1428,579L1297,716Z" fill="#d43c25" stroke="#d43c25" stroke-width="1.51"/><path d="M1109,1122L1294,1056L1066,948Z" fill="#c42817" stroke="#c42817" stroke-width="1.51"/><path d="M1301,944L1464,782L1297,716Z" fill="#cf2a19" stroke="#cf2a19" stroke-width="1.51"/><path d="M192,958L321,1112L387,962Z" fill="#de7749" stroke="#de7749" stroke-width="1.51"/><path d="M180,681L192,958L379,698Z" fill="#f28d5f" stroke="#f28d5f" stroke-width="1.51"/><path d="M15,689L192,958L180,681Z" fill="#f39268" stroke="#f39268" stroke-width="1.51"/><path d="M744,-65L537,-11L683,180Z" fill="#ffb985" stroke="#ffb985" stroke-width="1.51"/><path d="M1484,912L1464,782L1301,944Z" fill="#c51e10" stroke="#c51e10" stroke-width="1.51"/><path d="M876,6L744,-65L683,180Z" fill="#feb07d" stroke="#feb07d" stroke-width="1.51"/><path d="M725,-181L744,-65L900,-180Z" fill="#ffb790" stroke="#ffb790" stroke-width="1.51"/><path d="M1428,579L1445,390L1285,592Z" fill="#dd5330" stroke="#dd5330" stroke-width="1.51"/><path d="M1303,124L1128,1L1138,134Z" fill="#f18d5f" stroke="#f18d5f" stroke-width="1.51"/><path d="M1628,502L1445,390L1428,579Z" fill="#d6512b" stroke="#d6512b" stroke-width="1.51"/><path d="M1138,134L1128,1L876,6Z" fill="#f79a6f" stroke="#f79a6f" stroke-width="1.51"/><path d="M1303,124L1138,134L1314,337Z" fill="#ed8053" stroke="#ed8053" stroke-width="1.51"/><path d="M1520,119L1303,124L1314,337Z" fill="#e57a4c" stroke="#e57a4c" stroke-width="1.51"/><path d="M1676,678L1628,502L1428,579Z" fill="#ca4327" stroke="#ca4327" stroke-width="1.51"/><path d="M1508,1073L1484,912L1301,944Z" fill="#bb1006" stroke="#bb1006" stroke-width="1.51"/><path d="M362,-14L192,159L314,190Z" fill="#fdce97" stroke="#fdce97" stroke-width="1.51"/><path d="M314,190L192,159L302,328Z" fill="#fdc790" stroke="#fdc790" stroke-width="1.51"/><path d="M-80,338L-21,562L143,550Z" fill="#ffb588" stroke="#ffb588" stroke-width="1.51"/><path d="M-21,562L15,689L143,550Z" fill="#fca880" stroke="#fca880" stroke-width="1.51"/><path d="M143,550L15,689L180,681Z" fill="#fba278" stroke="#fba278" stroke-width="1.51"/><path d="M314,-194L362,-14L537,-11Z" fill="#fed2a4" stroke="#fed2a4" stroke-width="1.51"/><path d="M537,-11L362,-14L511,210Z" fill="#fdc892" stroke="#fdc892" stroke-width="1.51"/><path d="M-80,338L143,550L210,363Z" fill="#ffb988" stroke="#ffb988" stroke-width="1.51"/><path d="M321,1112L149,1144L508,1138Z" fill="#cb7047" stroke="#cb7047" stroke-width="1.51"/><path d="M508,1138L149,1144L893,1157Z" fill="#c7643c" stroke="#c7643c" stroke-width="1.51"/><path d="M192,958L149,1144L321,1112Z" fill="#d5794c" stroke="#d5794c" stroke-width="1.51"/><path d="M-27,1054L149,1144L192,958Z" fill="#da7e54" stroke="#da7e54" stroke-width="1.51"/><path d="M744,-65L725,-181L537,-11Z" fill="#ffbe91" stroke="#ffbe91" stroke-width="1.51"/><path d="M900,-180L744,-65L876,6Z" fill="#feb188" stroke="#feb188" stroke-width="1.51"/><path d="M1085,-223L900,-180L1128,1Z" fill="#fba582" stroke="#fba582" stroke-width="1.51"/><path d="M1128,1L900,-180L876,6Z" fill="#fca781" stroke="#fca781" stroke-width="1.51"/><path d="M1676,678L1428,579L1464,782Z" fill="#cc3721" stroke="#cc3721" stroke-width="1.51"/><path d="M1294,1056L1508,1073L1301,944Z" fill="#b91107" stroke="#b91107" stroke-width="1.51"/><path d="M1109,1122L1508,1073L1294,1056Z" fill="#b6160c" stroke="#b6160c" stroke-width="1.51"/><path d="M1681,1105L1508,1073L1109,1122Z" fill="#aa0704" stroke="#aa0704" stroke-width="1.51"/><path d="M1445,390L1520,119L1314,337Z" fill="#e07043" stroke="#e07043" stroke-width="1.51"/><path d="M1614,902L1464,782L1484,912Z" fill="#be180c" stroke="#be180c" stroke-width="1.51"/><path d="M1303,124L1300,-60L1128,1Z" fill="#f18c61" stroke="#f18c61" stroke-width="1.51"/><path d="M1504,-61L1300,-60L1303,124Z" fill="#e8865c" stroke="#e8865c" stroke-width="1.51"/><path d="M-43,172L-80,338L210,363Z" fill="#ffcb9c" stroke="#ffcb9c" stroke-width="1.51"/><path d="M362,-14L162,31L192,159Z" fill="#fdd39e" stroke="#fdd39e" stroke-width="1.51"/><path d="M314,-194L162,31L362,-14Z" fill="#fed7a9" stroke="#fed7a9" stroke-width="1.51"/><path d="M1508,1073L1614,902L1484,912Z" fill="#b30904" stroke="#b30904" stroke-width="1.51"/><path d="M15,689L-49,918L192,958Z" fill="#ef8d65" stroke="#ef8d65" stroke-width="1.51"/><path d="M-168,948L-49,918L-227,722Z" fill="#f29473" stroke="#f29473" stroke-width="1.51"/><path d="M1614,902L1676,678L1464,782Z" fill="#be2414" stroke="#be2414" stroke-width="1.51"/><path d="M1668,328L1520,119L1445,390Z" fill="#d66b3f" stroke="#d66b3f" stroke-width="1.51"/><path d="M1300,-60L1085,-223L1128,1Z" fill="#f59873" stroke="#f59873" stroke-width="1.51"/><path d="M900,-180L550,-251L725,-181Z" fill="#ffbe98" stroke="#ffbe98" stroke-width="1.51"/><path d="M-227,722L-49,918L15,689Z" fill="#f69a78" stroke="#f69a78" stroke-width="1.51"/><path d="M-43,172L210,363L192,159Z" fill="#fecd9a" stroke="#fecd9a" stroke-width="1.51"/><path d="M-49,918L-27,1054L192,958Z" fill="#e5855d" stroke="#e5855d" stroke-width="1.51"/><path d="M1085,-223L550,-251L900,-180Z" fill="#ffb695" stroke="#ffb695" stroke-width="1.51"/><path d="M725,-181L550,-251L537,-11Z" fill="#ffc79d" stroke="#ffc79d" stroke-width="1.51"/><path d="M1628,502L1668,328L1445,390Z" fill="#d05931" stroke="#d05931" stroke-width="1.51"/><path d="M1676,678L1668,328L1628,502Z" fill="#c54b2a" stroke="#c54b2a" stroke-width="1.51"/><path d="M-69,-61L-43,172L162,31Z" fill="#feddb0" stroke="#feddb0" stroke-width="1.51"/><path d="M162,31L-43,172L192,159Z" fill="#fed5a3" stroke="#fed5a3" stroke-width="1.51"/><path d="M550,-251L314,-194L537,-11Z" fill="#ffd2a9" stroke="#ffd2a9" stroke-width="1.51"/><path d="M1504,-61L1303,124L1520,119Z" fill="#e28051" stroke="#e28051" stroke-width="1.51"/><path d="M1439,-234L1299,-197L1300,-60Z" fill="#ed8f6e" stroke="#ed8f6e" stroke-width="1.51"/><path d="M1300,-60L1299,-197L1085,-223Z" fill="#f59675" stroke="#f59675" stroke-width="1.51"/><path d="M1629,-30L1504,-61L1520,119Z" fill="#da7d54" stroke="#da7d54" stroke-width="1.51"/><path d="M-49,918L-168,948L-27,1054Z" fill="#e68a66" stroke="#e68a66" stroke-width="1.51"/><path d="M-227,722L15,689L-21,562Z" fill="#fca785" stroke="#fca785" stroke-width="1.51"/><path d="M-80,338L-217,574L-21,562Z" fill="#ffb891" stroke="#ffb891" stroke-width="1.51"/><path d="M-255,373L-217,574L-80,338Z" fill="#ffc19b" stroke="#ffc19b" stroke-width="1.51"/><path d="M1668,328L1664,144L1520,119Z" fill="#cf6f45" stroke="#cf6f45" stroke-width="1.51"/><path d="M1660,-250L1664,144L1668,328Z" fill="#cb764c" stroke="#cb764c" stroke-width="1.51"/><path d="M-217,574L-227,722L-21,562Z" fill="#fead8e" stroke="#fead8e" stroke-width="1.51"/><path d="M893,1157L1681,1105L1109,1122Z" fill="#b41c11" stroke="#b41c11" stroke-width="1.51"/><path d="M1508,1073L1681,1105L1614,902Z" fill="#a60001" stroke="#a60001" stroke-width="1.51"/><path d="M1614,902L1681,1105L1676,678Z" fill="#ad120a" stroke="#ad120a" stroke-width="1.51"/><path d="M-64,-226L138,-167L314,-194Z" fill="#ffe4c1" stroke="#ffe4c1" stroke-width="1.51"/><path d="M314,-194L138,-167L162,31Z" fill="#fedeb3" stroke="#fedeb3" stroke-width="1.51"/><path d="M-227,722L-187,1055L-168,948Z" fill="#ee9172" stroke="#ee9172" stroke-width="1.51"/><path d="M-168,948L-187,1055L-27,1054Z" fill="#e38766" stroke="#e38766" stroke-width="1.51"/><path d="M-27,1054L-187,1055L149,1144Z" fill="#d6815e" stroke="#d6815e" stroke-width="1.51"/><path d="M-217,574L-255,373L-227,722Z" fill="#ffb696" stroke="#ffb696" stroke-width="1.51"/><path d="M-230,162L-255,373L-80,338Z" fill="#ffd2ab" stroke="#ffd2ab" stroke-width="1.51"/><path d="M-230,162L-80,338L-43,172Z" fill="#ffd6ad" stroke="#ffd6ad" stroke-width="1.51"/><path d="M1504,-61L1439,-234L1300,-60Z" fill="#e88a66" stroke="#e88a66" stroke-width="1.51"/><path d="M1664,144L1629,-30L1520,119Z" fill="#d2784c" stroke="#d2784c" stroke-width="1.51"/><path d="M1660,-250L1439,-234L1504,-61Z" fill="#df8767" stroke="#df8767" stroke-width="1.51"/><path d="M1299,-197L1439,-234L1085,-223Z" fill="#f39577" stroke="#f39577" stroke-width="1.51"/><path d="M1085,-223L1439,-234L550,-251Z" fill="#fda98d" stroke="#fda98d" stroke-width="1.51"/><path d="M138,-167L-69,-61L162,31Z" fill="#fee0b8" stroke="#fee0b8" stroke-width="1.51"/><path d="M-178,-21L-230,162L-43,172Z" fill="#ffdfb8" stroke="#ffdfb8" stroke-width="1.51"/><path d="M-69,-61L-178,-21L-43,172Z" fill="#fee2bb" stroke="#fee2bb" stroke-width="1.51"/><path d="M-240,-156L-178,-21L-69,-61Z" fill="#ffe9cc" stroke="#ffe9cc" stroke-width="1.51"/><path d="M138,-167L-64,-226L-69,-61Z" fill="#fee7c7" stroke="#fee7c7" stroke-width="1.51"/><path d="M550,-251L-64,-226L314,-194Z" fill="#ffdfba" stroke="#ffdfba" stroke-width="1.51"/><path d="M1629,-30L1660,-250L1504,-61Z" fill="#d68260" stroke="#d68260" stroke-width="1.51"/><path d="M1439,-234L1660,-250L550,-251Z" fill="#f79a7e" stroke="#f79a7e" stroke-width="1.51"/><path d="M1664,144L1660,-250L1629,-30Z" fill="#cf7d59" stroke="#cf7d59" stroke-width="1.51"/><path d="M1676,678L1660,-250L1668,328Z" fill="#c96941" stroke="#c96941" stroke-width="1.51"/><path d="M-64,-226L-240,-156L-69,-61Z" fill="#ffebd0" stroke="#ffebd0" stroke-width="1.51"/><path d="M-178,-21L-240,-156L-230,162Z" fill="#ffe7c7" stroke="#ffe7c7" stroke-width="1.51"/><path d="M-230,162L-240,-156L-255,373Z" fill="#ffe0bc" stroke="#ffe0bc" stroke-width="1.51"/></svg>