<svg width="28px" height="32px" viewBox="0 0 28 32" version="1.1" xmlns="http://www.w3.org/2000/svg" xmlns:xlink="http://www.w3.org/1999/xlink">
    <g id="Page-1" stroke="none" stroke-width="1" fill="none" fill-rule="evenodd" opacity="0.8">
        <g id="downward-arrow" transform="translate(14.000000, 16.000000) scale(-1, 1) rotate(-90.000000) translate(-14.000000, -16.000000) translate(-2.000000, 2.000000)" fill="#FFFFFF">
            <path d="M9.05,12.403 L7.92,11.273 L0,19.19 L7.92,27.11 L9.05,25.98 L3.158,20.086 C3.203,20.091 3.248,20.096 3.296,20.099 C7.029,20.439 11.131,20.302 15.016,19.339 C18.903,18.379 20.25,17.576 22.289,16.053 C24.245,14.59 25.875,12.843 27.205,10.876 C28.667,8.711 29.695,6.396 30.365,4.081 C30.599,3.269 30.773,2.514 30.895,1.834 C30.969,1.42 31.009,1.119 31.025,0.949 L31.103,0.152 L29.51,0 L29.434,0.796 C29.422,0.926 29.387,1.183 29.321,1.553 C29.211,2.18 29.048,2.881 28.831,3.637 C28.2,5.8 27.24,7.965 25.88,9.98 C24.647,11.805 23.14,13.42 21.33,14.772 C19.478,16.157 17.216,17.149 14.632,17.788 C10.947,18.701 7.012,18.832 3.442,18.506 L2.992,18.462 L9.052,12.402 L9.05,12.403 Z" id="Path"></path>
        </g>
    </g>
</svg>